<svg width="256" height="256" viewBox="0 0 256 256" fill="none" xmlns="http://www.w3.org/2000/svg">
<g clip-path="url(#clip0_189_1280)">
<path d="M128 244.8C182.787 244.8 227.2 235.488 227.2 224C227.2 212.513 182.787 203.2 128 203.2C73.2134 203.2 28.8 212.513 28.8 224C28.8 235.488 73.2134 244.8 128 244.8Z" fill="#263A59" fill-opacity="0.2"/>
<g filter="url(#filter0_df_189_1280)">
<path d="M4.94092 162.713C4.94092 68.4414 56.7553 26.019 128 26.019C199.245 26.019 251.059 68.4414 251.059 162.713C251.059 211.421 205.722 236.56 128 236.56C50.2785 236.56 4.94092 211.421 4.94092 162.713Z" fill="url(#paint0_radial_189_1280)"/>
</g>
<path d="M50.2785 165.856C61.0097 165.856 69.7089 160.932 69.7089 154.857C69.7089 148.783 61.0097 143.859 50.2785 143.859C39.5474 143.859 30.8481 148.783 30.8481 154.857C30.8481 160.932 39.5474 165.856 50.2785 165.856Z" fill="#F67C95" fill-opacity="0.5"/>
<path d="M205.722 165.856C216.453 165.856 225.152 160.932 225.152 154.857C225.152 148.783 216.453 143.859 205.722 143.859C194.991 143.859 186.291 148.783 186.291 154.857C186.291 160.932 194.991 165.856 205.722 165.856Z" fill="#F67C95" fill-opacity="0.5"/>
<path d="M79.4241 133.646C87.9196 133.646 94.8066 126.963 94.8066 118.72C94.8066 110.476 87.9196 103.793 79.4241 103.793C70.9287 103.793 64.0417 110.476 64.0417 118.72C64.0417 126.963 70.9287 133.646 79.4241 133.646Z" fill="#2E3D5E"/>
<path d="M176.576 133.646C185.072 133.646 191.959 126.963 191.959 118.72C191.959 110.476 185.072 103.793 176.576 103.793C168.081 103.793 161.194 110.476 161.194 118.72C161.194 126.963 168.081 133.646 176.576 133.646Z" fill="#2E3D5E"/>
</g>
<defs>
<filter id="filter0_df_189_1280" x="-17.3894" y="3.68877" width="290.779" height="255.202" filterUnits="userSpaceOnUse" color-interpolation-filters="sRGB">
<feFlood flood-opacity="0" result="BackgroundImageFix"/>
<feColorMatrix in="SourceAlpha" type="matrix" values="0 0 0 0 0 0 0 0 0 0 0 0 0 0 0 0 0 0 127 0" result="hardAlpha"/>
<feOffset dy="14.3552"/>
<feColorMatrix type="matrix" values="0 0 0 0 0.11 0 0 0 0 0.19 0 0 0 0 0.32 0 0 0 0.38 0"/>
<feBlend mode="normal" in2="BackgroundImageFix" result="effect1_dropShadow_189_1280"/>
<feBlend mode="normal" in="SourceGraphic" in2="effect1_dropShadow_189_1280" result="shape"/>
<feGaussianBlur stdDeviation="11.1651" result="effect2_foregroundBlur_189_1280"/>
</filter>
<radialGradient id="paint0_radial_189_1280" cx="0" cy="0" r="1" gradientUnits="userSpaceOnUse" gradientTransform="translate(8619.09 4657.92) scale(17228.3 14737.9)">
<stop stop-color="#F8FCFF"/>
<stop offset="0.32" stop-color="#D2E9FF"/>
<stop offset="1" stop-color="#6EA7E6"/>
</radialGradient>
<clipPath id="clip0_189_1280">
<rect width="256" height="256" fill="white"/>
</clipPath>
</defs>
</svg>
