<svg width="256" height="256" viewBox="0 0 256 256" fill="none" xmlns="http://www.w3.org/2000/svg">
<g clip-path="url(#clip0_189_1230)">
<path d="M128 244.8C182.787 244.8 227.2 235.488 227.2 224C227.2 212.513 182.787 203.2 128 203.2C73.2134 203.2 28.8 212.513 28.8 224C28.8 235.488 73.2134 244.8 128 244.8Z" fill="#263A59" fill-opacity="0.2"/>
<g filter="url(#filter0_df_189_1230)">
<path d="M7.85913 157.286C7.85913 59.5582 58.4447 15.5806 128 15.5806C197.555 15.5806 248.141 59.5582 248.141 157.286C248.141 207.779 203.878 233.84 128 233.84C52.1215 233.84 7.85913 207.779 7.85913 157.286Z" fill="url(#paint0_radial_189_1230)"/>
</g>
<path d="M52.1215 160.544C62.5981 160.544 71.0911 155.439 71.0911 149.142C71.0911 142.845 62.5981 137.741 52.1215 137.741C41.6448 137.741 33.1519 142.845 33.1519 149.142C33.1519 155.439 41.6448 160.544 52.1215 160.544Z" fill="#F67C95" fill-opacity="0.42"/>
<path d="M203.878 160.544C214.355 160.544 222.848 155.439 222.848 149.142C222.848 142.845 214.355 137.741 203.878 137.741C193.402 137.741 184.909 142.845 184.909 149.142C184.909 155.439 193.402 160.544 203.878 160.544Z" fill="#F67C95" fill-opacity="0.42"/>
<path d="M80.576 127.153C88.8699 127.153 95.5936 120.225 95.5936 111.68C95.5936 103.134 88.8699 96.2061 80.576 96.2061C72.282 96.2061 65.5583 103.134 65.5583 111.68C65.5583 120.225 72.282 127.153 80.576 127.153Z" fill="#2E3D5E"/>
<path d="M175.424 127.153C183.718 127.153 190.441 120.225 190.441 111.68C190.441 103.134 183.718 96.2061 175.424 96.2061C167.13 96.2061 160.406 103.134 160.406 111.68C160.406 120.225 167.13 127.153 175.424 127.153Z" fill="#2E3D5E"/>
</g>
<defs>
<filter id="filter0_df_189_1230" x="-14.6056" y="-6.88412" width="285.211" height="263.189" filterUnits="userSpaceOnUse" color-interpolation-filters="sRGB">
<feFlood flood-opacity="0" result="BackgroundImageFix"/>
<feColorMatrix in="SourceAlpha" type="matrix" values="0 0 0 0 0 0 0 0 0 0 0 0 0 0 0 0 0 0 127 0" result="hardAlpha"/>
<feOffset dy="14.4416"/>
<feColorMatrix type="matrix" values="0 0 0 0 0.11 0 0 0 0 0.19 0 0 0 0 0.32 0 0 0 0.38 0"/>
<feBlend mode="normal" in2="BackgroundImageFix" result="effect1_dropShadow_189_1230"/>
<feBlend mode="normal" in="SourceGraphic" in2="effect1_dropShadow_189_1230" result="shape"/>
<feGaussianBlur stdDeviation="11.2323" result="effect2_foregroundBlur_189_1230"/>
</filter>
<radialGradient id="paint0_radial_189_1230" cx="0" cy="0" r="1" gradientUnits="userSpaceOnUse" gradientTransform="translate(8417.72 4817.28) scale(16819.7 15278.1)">
<stop stop-color="#F8FCFF"/>
<stop offset="0.32" stop-color="#D2E9FF"/>
<stop offset="1" stop-color="#6EA7E6"/>
</radialGradient>
<clipPath id="clip0_189_1230">
<rect width="256" height="256" fill="white"/>
</clipPath>
</defs>
</svg>
