<?xml version="1.0" encoding="UTF-8"?>
<svg width="256" height="256" viewBox="48 92 160 140" xmlns="http://www.w3.org/2000/svg">
  <defs>
    <radialGradient id="g1" cx="35%" cy="22%" r="70%">
      <stop offset="0%" stop-color="#f8fcff"/>
      <stop offset="32%" stop-color="#d2e9ff"/>
      <stop offset="100%" stop-color="#6ea7e6"/>
    </radialGradient>
    <filter id="shadow" x="-30%" y="-30%" width="160%" height="180%">
      <feGaussianBlur in="SourceAlpha" stdDeviation="7"/>
      <feOffset dx="0" dy="9" result="off"/>
      <feColorMatrix in="off" type="matrix" values="0 0 0 0 0.11 0 0 0 0 0.19 0 0 0 0 0.32 0 0 0 0.38 0"/>
    </filter>
    <style>
      .eye { fill: #2e3d5e; }
      .line { fill: none; stroke: #2e3d5e; stroke-width: 6; stroke-linecap: round; stroke-linejoin: round; }
      .line.strong { stroke-width: 6.8; }
      .line-fill { fill: none; stroke: #2e3d5e; stroke-width: 6; }
      .mouth-hole { fill: rgba(46, 61, 94, 0.25); }
      .sweat { fill: #9fd4ff; opacity: 0.85; }
    </style>
  </defs>
  <rect width="256" height="256" fill="transparent"/>
  <ellipse cx="128" cy="222" rx="62" ry="13" fill="rgba(38,58,89,0.2)"/>
  <g transform="translate(128 154.00) scale(1.0000 1.0000) translate(-128 -154)">
    <path d="M52 182 C52 122, 84 95, 128 95 C172 95, 204 122, 204 182 C204 213, 176 229, 128 229 C80 229, 52 213, 52 182 Z" fill="url(#g1)" filter="url(#shadow)"/>
    <ellipse cx="80" cy="177" rx="12" ry="7" fill="rgba(246,124,149,0.42)"/>
    <ellipse cx="176" cy="177" rx="12" ry="7" fill="rgba(246,124,149,0.42)"/>
    <circle cx="98" cy="154" r="9.5" class="eye"/><circle cx="158" cy="154" r="9.5" class="eye"/><path d="M104 194.00 Q128 174.00 152 194.00" class="line"/>
  </g>
</svg>

