<svg width="256" height="256" viewBox="0 0 256 256" fill="none" xmlns="http://www.w3.org/2000/svg">
<g clip-path="url(#clip0_224_630)">
<path d="M128 244.8C182.787 244.8 227.2 235.487 227.2 224C227.2 212.512 182.787 203.2 128 203.2C73.2134 203.2 28.8 212.512 28.8 224C28.8 235.487 73.2134 244.8 128 244.8Z" fill="#263A59" fill-opacity="0.2"/>
<g filter="url(#filter0_df_224_630)">
<path d="M7.85925 157.286C7.85925 59.5584 58.4449 15.5808 128 15.5808C197.555 15.5808 248.141 59.5584 248.141 157.286C248.141 207.779 203.878 233.84 128 233.84C52.1217 233.84 7.85925 207.779 7.85925 157.286Z" fill="url(#paint0_radial_224_630)"/>
</g>
<path d="M52.1217 160.544C62.5983 160.544 71.0913 155.439 71.0913 149.142C71.0913 142.845 62.5983 137.741 52.1217 137.741C41.6451 137.741 33.1521 142.845 33.1521 149.142C33.1521 155.439 41.6451 160.544 52.1217 160.544Z" fill="#F67C95" fill-opacity="0.42"/>
<path d="M203.878 160.544C214.355 160.544 222.848 155.439 222.848 149.142C222.848 142.845 214.355 137.741 203.878 137.741C193.402 137.741 184.909 142.845 184.909 149.142C184.909 155.439 193.402 160.544 203.878 160.544Z" fill="#F67C95" fill-opacity="0.42"/>
<path d="M80.5761 127.153C88.8701 127.153 95.5937 120.226 95.5937 111.68C95.5937 103.134 88.8701 96.2063 80.5761 96.2063C72.2821 96.2063 65.5585 103.134 65.5585 111.68C65.5585 120.226 72.2821 127.153 80.5761 127.153Z" fill="#2E3D5E"/>
<path d="M175.424 127.153C183.718 127.153 190.442 120.226 190.442 111.68C190.442 103.134 183.718 96.2063 175.424 96.2063C167.13 96.2063 160.406 103.134 160.406 111.68C160.406 120.226 167.13 127.153 175.424 127.153Z" fill="#2E3D5E"/>
<path d="M86.8993 159.404C114.3 182.75 141.7 182.75 169.101 159.404" stroke="#2E3D5E" stroke-width="9.62772" stroke-linecap="round" stroke-linejoin="round"/>
</g>
<defs>
<filter id="filter0_df_224_630" x="-14.6054" y="-6.88388" width="285.211" height="263.189" filterUnits="userSpaceOnUse" color-interpolation-filters="sRGB">
<feFlood flood-opacity="0" result="BackgroundImageFix"/>
<feColorMatrix in="SourceAlpha" type="matrix" values="0 0 0 0 0 0 0 0 0 0 0 0 0 0 0 0 0 0 127 0" result="hardAlpha"/>
<feOffset dy="14.4416"/>
<feColorMatrix type="matrix" values="0 0 0 0 0.11 0 0 0 0 0.19 0 0 0 0 0.32 0 0 0 0.38 0"/>
<feBlend mode="normal" in2="BackgroundImageFix" result="effect1_dropShadow_224_630"/>
<feBlend mode="normal" in="SourceGraphic" in2="effect1_dropShadow_224_630" result="shape"/>
<feGaussianBlur stdDeviation="11.2323" result="effect2_foregroundBlur_224_630"/>
</filter>
<radialGradient id="paint0_radial_224_630" cx="0" cy="0" r="1" gradientUnits="userSpaceOnUse" gradientTransform="translate(8417.72 4817.28) scale(16819.7 15278.1)">
<stop stop-color="#F8FCFF"/>
<stop offset="0.32" stop-color="#D2E9FF"/>
<stop offset="1" stop-color="#6EA7E6"/>
</radialGradient>
<clipPath id="clip0_224_630">
<rect width="256" height="256" fill="white"/>
</clipPath>
</defs>
</svg>
