<svg width="256" height="256" viewBox="0 0 256 256" fill="none" xmlns="http://www.w3.org/2000/svg">
<g clip-path="url(#clip0_224_610)">
<path d="M128 244.8C182.787 244.8 227.2 235.487 227.2 224C227.2 212.512 182.787 203.2 128 203.2C73.2134 203.2 28.8 212.512 28.8 224C28.8 235.487 73.2134 244.8 128 244.8Z" fill="#263A59" fill-opacity="0.2"/>
<g filter="url(#filter0_df_224_610)">
<path d="M5.67041 161.357C5.67041 66.2209 57.1776 23.4097 128 23.4097C198.822 23.4097 250.33 66.2209 250.33 161.357C250.33 210.51 205.261 235.88 128 235.88C50.7392 235.88 5.67041 210.51 5.67041 161.357Z" fill="url(#paint0_radial_224_610)"/>
</g>
<path d="M50.7393 164.528C61.4068 164.528 70.0545 159.559 70.0545 153.429C70.0545 147.299 61.4068 142.33 50.7393 142.33C40.0718 142.33 31.4241 147.299 31.4241 153.429C31.4241 159.559 40.0718 164.528 50.7393 164.528Z" fill="#F67C95" fill-opacity="0.46"/>
<path d="M205.261 164.528C215.928 164.528 224.576 159.559 224.576 153.429C224.576 147.299 215.928 142.33 205.261 142.33C194.593 142.33 185.946 147.299 185.946 153.429C185.946 159.559 194.593 164.528 205.261 164.528Z" fill="#F67C95" fill-opacity="0.46"/>
<path d="M60.3969 110.618C73.2737 119.074 86.1504 119.074 99.0272 110.618" stroke="#2E3D5E" stroke-width="9.58533" stroke-linecap="round" stroke-linejoin="round"/>
<path d="M156.973 110.618C169.85 119.074 182.726 119.074 195.603 110.618" stroke="#2E3D5E" stroke-width="9.58533" stroke-linecap="round" stroke-linejoin="round"/>
<path d="M86.1504 165.083C114.05 188.603 141.95 188.603 169.85 165.083" stroke="#2E3D5E" stroke-width="9.58533" stroke-linecap="round" stroke-linejoin="round"/>
</g>
<defs>
<filter id="filter0_df_224_610" x="-16.6954" y="1.0439" width="289.391" height="257.202" filterUnits="userSpaceOnUse" color-interpolation-filters="sRGB">
<feFlood flood-opacity="0" result="BackgroundImageFix"/>
<feColorMatrix in="SourceAlpha" type="matrix" values="0 0 0 0 0 0 0 0 0 0 0 0 0 0 0 0 0 0 127 0" result="hardAlpha"/>
<feOffset dy="14.378"/>
<feColorMatrix type="matrix" values="0 0 0 0 0.11 0 0 0 0 0.19 0 0 0 0 0.32 0 0 0 0.38 0"/>
<feBlend mode="normal" in2="BackgroundImageFix" result="effect1_dropShadow_224_610"/>
<feBlend mode="normal" in="SourceGraphic" in2="effect1_dropShadow_224_610" result="shape"/>
<feGaussianBlur stdDeviation="11.1829" result="effect2_foregroundBlur_224_610"/>
</filter>
<radialGradient id="paint0_radial_224_610" cx="0" cy="0" r="1" gradientUnits="userSpaceOnUse" gradientTransform="translate(8568.74 4697.76) scale(17126.1 14872.9)">
<stop stop-color="#F8FCFF"/>
<stop offset="0.32" stop-color="#D2E9FF"/>
<stop offset="1" stop-color="#6EA7E6"/>
</radialGradient>
<clipPath id="clip0_224_610">
<rect width="256" height="256" fill="white"/>
</clipPath>
</defs>
</svg>
