<svg width="256" height="256" viewBox="0 0 256 256" fill="none" xmlns="http://www.w3.org/2000/svg">
<g clip-path="url(#clip0_188_918)">
<mask id="mask0_188_918" style="mask-type:luminance" maskUnits="userSpaceOnUse" x="-77" y="-132" width="410" height="411">
<path d="M332.8 -131.2H-76.8V278.4H332.8V-131.2Z" fill="white"/>
</mask>
<g mask="url(#mask0_188_918)">
<path d="M128 244.8C182.787 244.8 227.2 235.488 227.2 224C227.2 212.512 182.787 203.2 128 203.2C73.2131 203.2 28.7998 212.512 28.7998 224C28.7998 235.488 73.2131 244.8 128 244.8Z" fill="#263A59" fill-opacity="0.2"/>
<g filter="url(#filter0_df_188_918)">
<path d="M6.3999 160C6.3999 64 57.5999 20.8 128 20.8C198.4 20.8 249.6 64 249.6 160C249.6 209.6 204.8 235.2 128 235.2C51.1999 235.2 6.3999 209.6 6.3999 160Z" fill="url(#paint0_radial_188_918)"/>
</g>
</g>
<path d="M52.0848 181.872C62.625 181.872 71.1696 176.813 71.1696 170.571C71.1696 164.33 62.625 159.271 52.0848 159.271C41.5446 159.271 33 164.33 33 170.571C33 176.813 41.5446 181.872 52.0848 181.872Z" fill="#F67C95" fill-opacity="0.42"/>
<path d="M204.763 181.872C215.303 181.872 223.848 176.813 223.848 170.571C223.848 164.33 215.303 159.271 204.763 159.271C194.223 159.271 185.678 164.33 185.678 170.571C185.678 176.813 194.223 181.872 204.763 181.872Z" fill="#F67C95" fill-opacity="0.42"/>
<path d="M68.9238 128L101.924 144.5L61.4238 158" stroke="#2E3D5E" stroke-width="6" stroke-linecap="round"/>
<path d="M187.924 128L154.924 144.5L195.424 158" stroke="#2E3D5E" stroke-width="6" stroke-linecap="round"/>
</g>
<defs>
<filter id="filter0_df_188_918" x="-16.0001" y="-1.59995" width="288" height="259.2" filterUnits="userSpaceOnUse" color-interpolation-filters="sRGB">
<feFlood flood-opacity="0" result="BackgroundImageFix"/>
<feColorMatrix in="SourceAlpha" type="matrix" values="0 0 0 0 0 0 0 0 0 0 0 0 0 0 0 0 0 0 127 0" result="hardAlpha"/>
<feOffset dy="14.4"/>
<feColorMatrix type="matrix" values="0 0 0 0 0.11 0 0 0 0 0.19 0 0 0 0 0.32 0 0 0 0.38 0"/>
<feBlend mode="normal" in2="BackgroundImageFix" result="effect1_dropShadow_188_918"/>
<feBlend mode="normal" in="SourceGraphic" in2="effect1_dropShadow_188_918" result="shape"/>
<feGaussianBlur stdDeviation="11.2" result="effect2_foregroundBlur_188_918"/>
</filter>
<radialGradient id="paint0_radial_188_918" cx="0" cy="0" r="1" gradientUnits="userSpaceOnUse" gradientTransform="translate(8518.4 4737.6) scale(17024 15008)">
<stop stop-color="#F8FCFF"/>
<stop offset="0.32" stop-color="#D2E9FF"/>
<stop offset="1" stop-color="#6EA7E6"/>
</radialGradient>
<clipPath id="clip0_188_918">
<rect width="256" height="256" fill="white"/>
</clipPath>
</defs>
</svg>
