<svg width="256" height="256" viewBox="0 0 256 256" fill="none" xmlns="http://www.w3.org/2000/svg">
<g clip-path="url(#clip0_188_966)">
<mask id="mask0_188_966" style="mask-type:luminance" maskUnits="userSpaceOnUse" x="-77" y="-132" width="410" height="411">
<path d="M332.8 -131.2H-76.8V278.4H332.8V-131.2Z" fill="white"/>
</mask>
<g mask="url(#mask0_188_966)">
<path d="M128 244.8C182.787 244.8 227.2 235.488 227.2 224C227.2 212.512 182.787 203.2 128 203.2C73.2131 203.2 28.7998 212.512 28.7998 224C28.7998 235.488 73.2131 244.8 128 244.8Z" fill="#263A59" fill-opacity="0.2"/>
<g filter="url(#filter0_df_188_966)">
<path d="M5.13525 162.356C5.13525 67.8541 56.8677 25.3281 128 25.3281C199.133 25.3281 250.864 67.8541 250.864 162.356C250.864 211.184 205.598 236.384 128 236.384C50.4012 236.384 5.13525 211.184 5.13525 162.356Z" fill="url(#paint0_radial_188_966)"/>
</g>
</g>
<path d="M79.3581 156.066C87.8397 156.066 94.7165 152.469 94.7165 148.034C94.7165 143.597 87.8397 140 79.3581 140C70.8762 140 64 143.597 64 148.034C64 152.469 70.8762 156.066 79.3581 156.066Z" fill="#2E3D5E"/>
<path d="M176.356 156.066C184.838 156.066 191.715 152.469 191.715 148.034C191.715 143.597 184.838 140 176.356 140C167.875 140 160.998 143.597 160.998 148.034C160.998 152.469 167.875 156.066 176.356 156.066Z" fill="#2E3D5E"/>
<path d="M52.0848 178.602C62.625 178.602 71.1696 173.542 71.1696 167.301C71.1696 161.06 62.625 156 52.0848 156C41.5446 156 33 161.06 33 167.301C33 173.542 41.5446 178.602 52.0848 178.602Z" fill="#F67C95" fill-opacity="0.42"/>
<path d="M204.763 178.602C215.303 178.602 223.848 173.542 223.848 167.301C223.848 161.06 215.303 156 204.763 156C194.223 156 185.678 161.06 185.678 167.301C185.678 173.542 194.223 178.602 204.763 178.602Z" fill="#F67C95" fill-opacity="0.42"/>
</g>
<defs>
<filter id="filter0_df_188_966" x="-17.2046" y="2.98825" width="290.408" height="255.735" filterUnits="userSpaceOnUse" color-interpolation-filters="sRGB">
<feFlood flood-opacity="0" result="BackgroundImageFix"/>
<feColorMatrix in="SourceAlpha" type="matrix" values="0 0 0 0 0 0 0 0 0 0 0 0 0 0 0 0 0 0 127 0" result="hardAlpha"/>
<feOffset dy="14.3613"/>
<feColorMatrix type="matrix" values="0 0 0 0 0.11 0 0 0 0 0.19 0 0 0 0 0.32 0 0 0 0.38 0"/>
<feBlend mode="normal" in2="BackgroundImageFix" result="effect1_dropShadow_188_966"/>
<feBlend mode="normal" in="SourceGraphic" in2="effect1_dropShadow_188_966" result="shape"/>
<feGaussianBlur stdDeviation="11.1699" result="effect2_foregroundBlur_188_966"/>
</filter>
<radialGradient id="paint0_radial_188_966" cx="0" cy="0" r="1" gradientUnits="userSpaceOnUse" gradientTransform="translate(8605.66 4668.54) scale(17201.1 14773.9)">
<stop stop-color="#F8FCFF"/>
<stop offset="0.32" stop-color="#D2E9FF"/>
<stop offset="1" stop-color="#6EA7E6"/>
</radialGradient>
<clipPath id="clip0_188_966">
<rect width="256" height="256" fill="white"/>
</clipPath>
</defs>
</svg>
